<svg xmlns="http://www.w3.org/2000/svg" viewBox="0 0 900 900">
  <path d="M430.5 83c-3.3.4-9.8 1-14.5 1.4-9.2.7-23.6 2.9-34 5.1-3.6.8-7.8 1.6-9.5 1.9-1.6.2-5 1-7.5 1.6-9.4 2.5-15.6 4.2-18.5 5.2-1.6.5-4.3 1.3-6 1.8-4.6 1.3-9.7 3.1-12.7 4.6-1.4.8-3.3 1.4-4.1 1.4-.9 0-2.8.6-4.4 1.4-1.5.7-4.4 2-6.3 2.8-6.2 2.7-11.5 5.1-13 6-.8.4-2.2 1.1-3 1.4-3.2 1.3-15.8 7.7-21.5 10.9-3.3 1.9-6.9 3.9-8 4.5s-3.3 1.9-5 3c-1.6 1.1-3.7 2.3-4.5 2.7-.8.3-3.1 1.9-5.1 3.5-2 1.5-4 2.8-4.3 2.8-1 0-19.6 14.1-30.1 22.8-11.6 9.6-43.6 41.8-49.9 50.2-2.7 3.6-5.4 6.9-6 7.5-5.1 4.4-28.2 39-34.1 51-.9 1.6-2 3.8-2.5 4.7-.6 1-1.4 2.6-1.9 3.5-1.4 2.6-8.1 16.3-9.6 19.8-.8 1.6-2.8 6-4.4 9.8-1.7 3.7-3.1 7.2-3.1 7.8s-.6 2.3-1.4 3.7c-1.5 3-3.3 8.1-4.6 12.7-.8 2.9-1.6 5.5-4.1 12.7-.6 1.8-1.5 5.1-1.9 7.3-1 4.5-2.5 10.5-4.6 18.1-.8 2.8-1.4 6.1-1.4 7.3 0 1.3-.6 5.3-1.4 9-3.6 16.7-4.6 30.3-4.6 62.8 0 17.8.5 34.3 1 37 .6 2.6 1.4 8.6 1.9 13.3 1.2 11.1 2.4 17.2 7.1 36.5.7 2.7 1.6 6.6 2.1 8.5 2.2 9.6 7.4 24.7 13.9 41 6.6 16.4 18.8 40.4 27.8 54.7 2.4 3.7 4.8 7.7 5.5 8.8s1.4 2.2 1.7 2.5 2.3 3.2 4.5 6.5c4.6 6.9 14.9 20.8 18.1 24.5 1.2 1.4 5.4 6.2 9.3 10.7 13.7 15.8 29.4 30.7 46.7 44.4 3.8 2.9 7.8 6.2 8.8 7.1 1.1 1 3.8 3 6 4.5 2.3 1.5 4.3 3.1 4.6 3.4 1.3 1.5 18.7 12.8 24.5 15.9 1.1.6 4.7 2.6 8 4.4 19.9 11.2 49.9 24.2 66 28.6 1.7.5 4.4 1.3 6 1.8 16.1 5.5 46.9 11.8 65 13.2 5 .4 15.6 1.3 23.7 2.1 12.2 1.1 18 1.1 33 0 31.1-2.2 38.2-2.9 41.8-4 1.9-.6 5.1-1.1 7.1-1.1s5.6-.7 7.9-1.5 5.4-1.5 6.7-1.5c1.4 0 4.6-.6 7.2-1.4 2.5-.8 7.3-2.2 10.6-3.1s7.4-2.1 9-2.7c1.7-.6 4.4-1.3 6-1.6 1.7-.2 3.9-1.1 5-1.8 1.1-.8 2.7-1.4 3.7-1.4.9 0 3.2-.6 5-1.4s5.3-2.2 7.8-3.1c10.3-4 30.2-13.1 37.5-17.3 1.1-.7 4.3-2.3 7-3.7 2.8-1.5 6.2-3.4 7.7-4.3 10.8-6.9 16.6-10.5 18.3-11.5 1.1-.7 4.4-3.1 7.5-5.3 3-2.3 6.9-5 8.7-6.1 3.1-1.9 4.2-2.7 17.8-13.9 10.9-9 24.4-22.2 39.9-38.9 3.4-3.7 13.2-15.8 18.1-22.3 7.9-10.8 12.5-17.2 12.5-17.7 0-.6 4.1-6.6 5.1-7.5.3-.3.9-1.2 1.2-2 .4-.8 1.6-2.9 2.7-4.5 1.1-1.7 2.6-4.4 3.4-6 .9-1.7 3.6-6.6 6.1-11s4.7-8.7 5.1-9.5c.3-.8 1-2.2 1.5-3s1.2-2.2 1.5-3c.6-1.5 1.1-2.7 6.3-14.3 1.7-3.7 3.1-7.3 3.1-8s.6-2.1 1.4-3.2c.7-1.1 1.6-3.1 1.9-4.5s1.5-5 2.7-8 2.7-7.5 3.5-10c3.3-11.3 4.8-16.8 5.5-20 1.2-5.6 3.1-13.1 4.6-18.6.8-2.8 1.4-6.6 1.4-8.5s.7-6.1 1.5-9.4 1.4-8.3 1.5-11c0-2.8.7-10.4 1.5-17 1.8-14 2-39.5.4-51.5-.6-4.7-1.4-12.8-1.9-18-1.5-18.4-7.5-47.6-13.2-64.5-.5-1.7-1.3-4.4-1.8-6-1.5-5.6-5.8-17.2-7.6-20.8-.8-1.6-1.4-3.5-1.4-4.2s-.6-2.6-1.4-4.2c-.8-1.5-2.9-6-4.6-9.8-1.8-3.9-3.6-7.7-4.1-8.5s-1.2-2.2-1.5-3-.9-2.2-1.4-3-2.1-3.8-3.5-6.5c-3.4-6.7-7.1-13.1-10.6-18.3-1.6-2.4-2.9-4.5-2.9-4.7 0-.9-12.7-18.9-20.8-29.5-13.9-18.1-38.7-44-55.2-57.7-12.1-10-33.6-25.9-38.5-28.3-.5-.3-3.7-2.3-7-4.5-8-5.2-13.4-8.2-29.5-16.1-20.8-10.2-25.4-12.4-26.7-12.4-.6 0-2.4-.6-4-1.4-5.4-2.7-10.4-4.6-11.9-4.6-.9 0-2.8-.6-4.2-1.4-2.5-1.2-5.5-2.2-19.2-6.1-7.3-2.1-13.3-3.6-16.5-4.1-1.6-.3-5.9-1.1-9.5-1.9-9.1-1.9-19.1-3.5-29-4.5-4.7-.5-12.8-1.3-18-1.9-10.3-1.2-36.9-1.2-46.5-.1m62.5 24.1c3.6.6 9.7 1.4 13.5 1.8 3.9.5 9.1 1.4 11.8 2 2.6.6 6.8 1.6 9.5 2.2 2.6.6 6.5 1.5 8.7 2s7.2 1.8 11 2.9c3.9 1.2 8.4 2.5 10 3 5.1 1.4 9.9 3.2 12.8 4.6 1.6.8 3.5 1.4 4.2 1.4s2.6.6 4.2 1.4c1.5.8 6 2.8 9.8 4.6 3.9 1.7 7.7 3.6 8.5 4.1s2.4 1.3 3.6 1.8c4.3 1.9 13 8 17.5 12.2 12.1 11.6 17.1 23.2 19.9 46.4 3 25 12.2 45 27.9 60.6 5.9 5.9 15.1 13.3 20.6 16.6 1.7 1 16.1 9.9 22 13.6 11.5 7.1 22.4 18.2 26.1 26.4 3.6 8 3.9 23.7.7 32.8-1.9 5.2-6.6 15-9.8 20.3-.6.9-2.8 4.8-5 8.7-2.2 3.8-4.5 7.9-5.2 9-2.4 4.3-6.3 12.7-9.9 21.4-2.8 6.8-2.7 28.5.3 36.6 3.5 9.9 14.8 29 20.1 34.2 4.6 4.4 20.1 26.5 23.1 32.8 1.9 3.8 4.1 8.3 4.9 10 1.2 2.2 1.6 6.1 1.6 15 .1 11.8 0 12.1-3.4 18.8-6.8 13.5-23.1 24.6-46.7 31.8-1.8.5-3.5 1.4-3.8 1.9-.4.6-1.5 1-2.7 1-1.1 0-3.2.6-4.6 1.4-1.5.8-4.5 2.1-6.7 2.9s-4.7 1.8-5.5 2.1-2.2 1-3 1.5-2.2 1.2-3 1.6c-6.1 2.5-18.6 12.4-23.7 18.9-4.5 5.7-11.3 18.1-11.3 20.7 0 .6-.6 3.2-1.4 5.8-2.6 8.2-4.6 17.8-4.6 21.8 0 2.1-.5 5.6-1.1 7.8-.5 2.2-1.4 6.7-1.8 10-2.2 16.3-6.9 28.1-14.2 35.4-6.5 6.5-17.3 11.1-26.1 11.1-4.4 0-16.2-2.4-21.8-4.5-6.3-2.3-12.4-4.7-16-6.3-1.9-.8-5.1-2.2-7-3s-4.7-2.1-6.2-2.9c-1.4-.7-3.1-1.3-3.8-1.3s-2.6-.6-4.3-1.4c-14.8-6.3-36.8-6.2-50.7.3-7.4 3.4-24.5 14.9-35.2 23.6-1.6 1.3-7.5 5.3-12 8-2.3 1.4-10.7 5.5-14.3 7-5.2 2.2-16.1 4.5-21.2 4.5-6.6 0-18.7-3.2-25.3-6.6-5.3-2.8-19.3-15.7-23.8-21.9-1.2-1.7-3.8-5.1-5.7-7.7s-3.5-4.9-3.5-5.2c0-.9-10.3-14.9-14-19-6.5-7.2-7.5-8.1-11.5-11.1-4.9-3.7-6.9-4.9-12-7.3-8.5-4-11.6-5.2-13.4-5.2-1 0-3.6-.6-5.8-1.4-2.8-1-11.3-1.6-27.9-2-29.9-.8-46.8-3-57.9-7.6-7.8-3.3-16.5-7.8-21.9-11.3-11.2-7.5-26.9-24.9-34.2-38.2-6-10.9-14.4-28.8-14.4-30.6 0-.8-.4-1.9-.9-2.4-1-1-3.6-7.7-5.1-13-.4-1.7-1.3-4.4-1.8-6-6.5-19.5-12.4-50.4-14.3-75.5-1.7-22.2-.1-64.1 3-81 3.9-21.1 6.5-31.7 11.8-49.5 2.4-7.8 6.8-19.8 8.9-23.8.8-1.6 1.4-3.3 1.4-3.8 0-3.1 19.5-41.8 24.4-48.4 1.2-1.7 2.6-3.7 2.9-4.5 2.3-5 17.5-26.2 27.2-37.9 16.3-19.8 41.3-43.7 61.8-59 11.5-8.7 27.3-19.4 34.2-23.1 1.1-.6 4.7-2.6 8-4.5 6.1-3.4 18.6-9.6 24-12 15.4-6.7 18.3-7.8 30.5-11.7 3.6-1.1 8.1-2.6 10-3.3s6-1.9 9-2.8c3-.8 8-2.2 11.1-3.1s6.9-1.6 8.5-1.6 5.1-.7 7.8-1.5 7-1.5 9.5-1.5 6.2-.5 8.1-1.1c8.4-2.7 69-3.2 85-.8" />
  <path d="M366.2 145.1c-3.5 1-4 1.9-11.8 20.6-3.1 7.3-4.7 10.9-6 13.5-4.5 8.6 1.9 18.8 11.8 18.8 3.8 0 9.6-3.2 10.4-5.8.3-.9 1.2-3.3 2.1-5.2.8-1.9 2.1-4.9 2.7-6.5.7-1.7 2-4.6 2.8-6.5 7.7-17.5 7.8-17.9 5.8-22-1-1.9-2.7-4.3-3.9-5.4-2.4-2.2-9.2-2.9-13.9-1.5m125.5 17c-3.5 2.7-5.7 6.9-5.7 11.1 0 3.7 3 9.2 5.8 10.7 1.1.6 11.3 1.6 22.7 2.2l20.8 1.3 3.3-3.7c3.1-3.4 3.4-4.2 3.4-10 0-5.5-.3-6.7-2.5-8.7s-3.8-2.4-15.7-3.1c-7.3-.4-16.9-1-21.3-1.4-7.1-.5-8.3-.3-10.8 1.6m-72.4 18.5c-1.8 1.4-3.3 3.1-3.3 3.8s-1.1 3.3-2.5 5.7c-1.3 2.4-3.6 6.6-5 9.4-1.4 2.7-3.5 6.3-4.5 8-5.7 9-6.2 12-3 17.2 2 3.3 7.5 6.3 11.5 6.3 3.5 0 9.2-2.7 9.9-4.7.3-1 1.5-3.2 2.6-4.8 1-1.7 3.1-5.3 4.5-8 1.4-2.8 3-5.7 3.5-6.5 6.4-11 7-12.3 7-16.1 0-7.8-5.3-12.9-13.2-12.9-3.1 0-5.2.7-7.5 2.6m-127.9 21c-4 .9-7.6 5.9-8.2 11.2-.4 4.5-.1 5.3 3 8.8 1.9 2.2 4.9 5.9 6.8 8.4s4 4.9 4.6 5.5c.6.5 3.2 3.7 5.7 7.1 2.5 3.3 5.7 6.8 7.1 7.7 4.8 3.2 12.6 1.5 16.6-3.6 2.7-3.5 3.3-12.2 1-14-1.5-1.2-22.6-27.1-23.8-29.4-.8-1.3-9.4-2.4-12.8-1.7m298.6 8.1c-3.5 2.4-5.9 5.5-6 7.5 0 1-.6 3.5-1.4 5.5-.7 2.1-2.1 6.5-3.1 9.8-.9 3.3-2.4 7.6-3.2 9.6s-1.5 5.7-1.5 8.3c-.1 4.1.3 5.2 3.3 8.1 3.4 3.3 6 4 13.1 3.6 2.9-.1 7.8-4.3 7.8-6.6 0-.8.6-2.9 1.4-4.7 1.7-4.1 3.5-9.4 4.6-13.3.5-1.7 1.9-5.9 3.3-9.5 2.3-6.2 2.3-6.7.8-10-4-8.6-13-12.5-19.1-8.3m-380.6 39.7c-1.7 1.4-3.9 4.3-4.9 6.6l-1.9 4.2 2.4 4.6c2.6 4.8 2.9 5 10 7.7 2.5.9 5.8 2.3 7.3 3.1 1.6.8 3.5 1.4 4.2 1.4s2.6.6 4.2 1.4c1.5.7 4.6 2.2 6.7 3.2 2.2 1.1 6.1 1.9 8.7 1.9 3.9 0 5.3-.5 7.7-2.8 6.7-6.4 6.1-15.9-1.3-19.7-2.1-1.1-4.4-2-5.1-2-.6 0-3.8-1.2-7-2.6-12-5.2-15-6.5-17.7-7.9-4.3-2.3-9.7-1.9-13.3.9m253.1 3c-8.8 1.6-17.4 4.4-23.5 7.7-.8.5-3.7 2-6.5 3.4-6.4 3.3-7.7 4.2-15 9.1-3.4 2.2-6.7 4.3-7.5 4.7s-2.8 1.6-4.5 2.7c-6.8 4.3-20.7 10.4-27.5 12-11.2 2.6-33.8 6-39.5 6-2.2 0-5.7.5-7.9 1.1-2.1.6-5.9 1.4-8.5 1.9-4.7.8-9.2 2.2-14.6 4.5-1.6.7-3.7 1.6-4.5 1.9-8.6 3.7-21.6 16.9-26.1 26.6-7.5 16.2-9.7 33.9-6.3 50.7 2 9.9 4.3 18 6 21.5.8 1.4 1.4 3.3 1.4 4.2 0 .8.6 3 1.4 4.8 1.8 4.3 3.9 10 6 16.3 1.9 5.8 2.2 21.8.5 26.2-.6 1.5-1.4 4.6-1.9 6.8-.4 2.2-1.4 5.6-2 7.5-2.7 7.6-4.2 11.6-5.5 14.5-10.1 23.7-10 37 .4 47.3 5.4 5.5 18 11 30.8 13.7 1.8.4 3.5 1.1 3.8 1.6.4.5 1.8.9 3.2.9 1.3 0 3.7.6 5.1 1.3 1.5.8 6.1 3.1 10.2 5.2 4.1 2 10.8 6.3 14.8 9.4 10.9 8.4 21.4 16 23.7 17.1 1.1.5 2.7 1.4 3.5 1.9 1.9 1.1 7.5 3.5 12 5.1 7 2.4 15.8 3.1 32.5 2.6 15.6-.6 22.6-1.2 52-4.7 5.5-.7 13.2-1.5 17-1.9 9-.8 19.1-2.8 23.3-4.6 1.8-.8 3.9-1.4 4.6-1.4 3.4 0 18.7-9.4 27.5-16.9 5.8-4.9 17.7-18.3 19.2-21.6.5-1.1 1.8-3.4 2.8-5 1.1-1.7 4.3-7.7 7.2-13.4 4.3-8.5 6.7-11.9 13.3-18.6 4.5-4.5 10.1-9.8 12.6-11.7 11-8.7 21-20.1 25.2-28.8 2.9-6 4.1-14.3 2.7-19.2-2.7-10-6.3-15.3-21-30.6-11.4-11.9-19.6-22.5-22.7-29.2-4.4-9.7-5.2-11.9-5.2-13.9 0-1.1-.7-4.6-1.5-7.8-.8-3.1-1.5-7.9-1.5-10.6 0-2.6-.6-7.6-1.4-11s-1.9-8.7-2.5-11.7c-2-9.3-2.2-10.4-3.7-13.7-.8-1.7-1.4-3.3-1.4-3.6 0-.9-4.1-9.2-6-12.2-1.1-1.7-2.3-3.7-2.7-4.5-2.7-5.9-14.9-19.3-23.9-26.2-5.3-4-7.8-5.6-15.4-9.7-5.7-3-14.5-6.2-20.5-7.2-8.6-1.6-24.7-1.8-32-.5m14.5 92.2c11.6 3.2 16.6 4.8 19.5 6.2 1.7.8 3.7 1.8 4.5 2.2 10.3 4.6 27.8 17.7 35.2 26.3 6.3 7.3 11.2 13.6 12.1 15.7.4.8 1.6 2.8 2.6 4.5 9.2 14.3 15.1 35.9 15.1 55 0 28.9-10.5 55.4-30.4 76.3-7.6 8-19.7 17.6-26.8 21.1-2.3 1.2-5 2.6-5.8 3-1.4.8-3.1 1.6-12.3 5.5-2.1.9-4.5 1.6-5.3 1.6s-3.6.6-6.2 1.4c-5.7 1.7-19.9 3.6-26.7 3.6-7.1 0-21.3-1.9-26.6-3.6-2.6-.7-5.4-1.4-6.3-1.4-.8 0-3.2-.7-5.3-1.6-9.4-4-10.9-4.7-12.3-5.5-.8-.5-2.4-1.3-3.5-1.8s-3.7-2.1-5.8-3.5-4-2.6-4.3-2.6c-.9 0-6.3-4.9-15.6-14.1-11.4-11.5-23.2-29.8-25.9-40.4-.4-1.7-1.2-4.4-1.7-6-3.3-9.6-4.2-17-4.2-32.7 0-9.1.5-17.9 1.1-19.8s1.5-5.3 1.9-7.5c2-9.9 10.2-27.1 17.9-37.4 12.7-17.3 29-30.2 48.6-38.6 1.7-.7 4.7-2 6.8-2.9s4.7-1.6 5.8-1.6 3-.5 4.2-1.1c5.6-3.1 39.2-3.3 49.7-.3m181-45.5c-1.9.5-9.6 1.3-17.1 1.8-15.1 1.1-19.5 2.5-22.2 7.3-3.6 6.2-.8 14.2 6.2 17.7 3.3 1.7 4.2 1.7 11.1.5 4.1-.7 11.9-1.3 17.4-1.4 11.3 0 14.9-1.5 18.5-7.6 3.7-6.3 2-12.3-4.6-16.9-4.1-2.7-4.1-2.7-9.3-1.4M217 337c-6.5 1.4-13.5 3.2-18 4.6-2.5.8-5.3 1.4-6.2 1.4-1 0-3.6.7-5.8 1.6-10.6 4.2-10.6 18.8 0 23.5 3.6 1.6 4.5 1.7 7.8.5 5.8-2.1 12.9-3.9 26.2-6.7 8.1-1.7 9.8-2.5 12-6.1 2.7-4.4 2.5-9.7-.3-13.9-3.7-5.5-7.5-6.7-15.7-4.9m433.5 34.6c-7.1 3.7-8.5 10-5.2 24.9.9 3.8 2.4 11.4 3.3 16.8 1.6 9.1 2 9.9 4.9 11.7 2.1 1.3 5 2 8.2 2 4.2 0 5.4-.5 8.1-3.1 4.4-4.3 4.8-6.8 2.9-16.9-1-4.8-1.7-10-1.7-11.6 0-4-3.1-18.6-4.4-20.2-1.5-2-8.2-5.2-10.8-5.1-1.3 0-3.6.7-5.3 1.5m-488.7 51.9c-4.2 2.8-5.5 6.9-4.3 13.2.6 3.7 4.5 8.3 7 8.3.7 0 7.9 3.4 16 7.5 8.2 4.1 15.8 7.5 16.9 7.5 2.6 0 6.8-2.7 9.5-6.2 2.9-3.7 2.8-11.4-.2-14.8-1.8-2.1-10.2-6.8-16.7-9.4-.8-.3-2.2-1-3-1.5s-2.2-1.2-3-1.5c-.8-.4-3.5-1.7-5.9-3.1-5.8-3.3-11.5-3.3-16.3 0M670.9 495c-4.3 2.3-5.3 3.4-6.9 8.3-.8 2.7-.9 4.6-.2 6.7.6 1.6 7.5 9.3 15.4 17.2l14.3 14.3h5.7c6.8-.1 9.8-2.3 12.4-9.2 1.3-3.4 1.5-4.9.6-6.8-1.4-3.1-25.7-28-29.8-30.6-3.9-2.4-6.9-2.4-11.5.1m-474.5 18.3c-2.2 1.9-5.4 4.8-7.3 6.3-1.9 1.6-5 4.3-7 6s-5.3 4.3-7.3 5.8c-4.3 3.2-7.8 8.4-7.8 11.5 0 3.5 3.6 9.5 6.8 11.3 5.3 3.2 10.1 2.4 15.7-2.5 2.8-2.4 9.5-8.1 15-12.7 11.9-9.8 13.4-12.7 11-19.9-1.9-5.5-4.9-7.9-10.8-8.7-4.1-.6-4.8-.3-8.3 2.9m417.1 47.9c-1.1.6-2.7 1.5-3.5 2-.8.4-2.2 1.1-3 1.4-1.4.6-2.6 1.1-11 4.7-15.2 6.6-16.9 7.8-18.1 11.9-1.5 5.7-.3 11 3.2 14.4 4.3 4.1 10.2 4 19.4-.5 3.9-1.8 9.9-4.7 13.5-6.3 15.8-7.3 15.5-7 15.5-15.3 0-5.4-.4-6.6-2.5-8.7-4.6-4.4-9.6-5.7-13.5-3.6M277 585c-.8.5-2.6 1-4 1-2.4 0-9.8 1.4-24.8 4.8-9.1 2-12.2 5.3-12.2 12.8 0 4.2.4 5.1 4.2 8.6 5.5 5.1 5.2 5.1 30.5-.8 3.4-.8 7.6-1.4 9.3-1.4 4.4 0 8.9-3.5 11.2-8.7 1.9-4.3 1.9-4.3-.1-8.8-2.9-6.5-9.8-10.2-14.1-7.5m73 39.3c-3.6 1.7-5.6 4-7.1 8-1.3 3.8-.9 5.9 4.1 18.7 1.2 3 2.5 6.8 3 8.5.4 1.6 1.2 4.1 1.8 5.5s1.3 3.7 1.6 5.2c.3 1.4 1.8 4 3.2 5.7 2.4 2.9 3.1 3.1 8.9 3.1 5.9 0 6.5-.2 9.4-3.5 4.4-5 4.8-7.7 2.2-14.9-1.2-3.4-2.6-7.5-3.1-9.1-1.1-4-2.9-9.2-4.6-13.3-.8-1.8-1.4-4.1-1.4-5.2 0-3-4.5-7.5-8.8-8.8-4.7-1.4-6-1.4-9.2.1m96.4 13.1-3.9 3.4.3 13.8c.7 26.9 2.2 32.1 10.1 33.8 6.1 1.3 10.8-.2 14.3-4.5l2.9-3.6-1.7-19.9-1.7-19.9-3.6-3.2c-2.9-2.7-4.4-3.3-8.2-3.3s-5.2.6-8.5 3.4m83.2 7.1c-3.9 3.8-4.6 5-4.6 8.3 0 7.5 3.1 10.1 18.3 15.8 2 .8 5.6 2.1 8 3 2.3.9 5.7 2.3 7.6 3.2 1.9 1 5.6 1.7 8.3 1.6 8.4-.1 12.8-6.3 11.3-16-.6-4.2-1-4.6-5.3-6.6-6.4-2.8-10-4.3-14.7-6.1-10.2-3.8-13.2-5-16.3-6.3-5.4-2.3-7.7-1.8-12.6 3.1" />
</svg>
