<svg xmlns="http://www.w3.org/2000/svg" viewBox="0 0 1200 640" width="1200" height="640" role="img" aria-label="Start a profile from the local REST API and connect Playwright to it over CDP, or let your AI agent work with profiles over remote MCP."><style>text{font-family:-apple-system, BlinkMacSystemFont, 'Segoe UI', 'Helvetica Neue', Helvetica, Arial, sans-serif}.m{font-family:ui-monospace, SFMono-Regular, Menlo, Consolas, 'Liberation Mono', monospace}@keyframes hl10{0%,9.9%{opacity:0}11.5%,28.5%{opacity:1}30.0%,100%{opacity:0}}@keyframes hl30{0%,29.9%{opacity:0}31.5%,48.5%{opacity:1}50.0%,100%{opacity:0}}@keyframes hl50{0%,49.9%{opacity:0}51.5%,68.5%{opacity:1}70.0%,100%{opacity:0}}@keyframes t0{0%,21.9%{opacity:0;transform:translateY(6px)}24.0%,94.9%{opacity:1;transform:translateY(0)}95.0%,100%{opacity:0;transform:translateY(0)}}@keyframes t1{0%,41.9%{opacity:0;transform:translateY(6px)}44.0%,94.9%{opacity:1;transform:translateY(0)}95.0%,100%{opacity:0;transform:translateY(0)}}@keyframes t2{0%,61.9%{opacity:0;transform:translateY(6px)}64.0%,94.9%{opacity:1;transform:translateY(0)}95.0%,100%{opacity:0;transform:translateY(0)}}@keyframes u{0%,2.4%{opacity:0;transform:translateY(6px)}4.5%,94.9%{opacity:1;transform:translateY(0)}95.0%,100%{opacity:0;transform:translateY(0)}}@keyframes m0{0%,12.4%{opacity:0;transform:translateY(6px)}14.5%,94.9%{opacity:1;transform:translateY(0)}95.0%,100%{opacity:0;transform:translateY(0)}}@keyframes m1{0%,22.4%{opacity:0;transform:translateY(6px)}24.5%,94.9%{opacity:1;transform:translateY(0)}95.0%,100%{opacity:0;transform:translateY(0)}}@keyframes m2{0%,32.4%{opacity:0;transform:translateY(6px)}34.5%,94.9%{opacity:1;transform:translateY(0)}95.0%,100%{opacity:0;transform:translateY(0)}}@keyframes m3{0%,42.4%{opacity:0;transform:translateY(6px)}44.5%,94.9%{opacity:1;transform:translateY(0)}95.0%,100%{opacity:0;transform:translateY(0)}}@keyframes a{0%,53.9%{opacity:0;transform:translateY(6px)}56.0%,94.9%{opacity:1;transform:translateY(0)}95.0%,100%{opacity:0;transform:translateY(0)}}@media (prefers-reduced-motion:reduce){*{animation:none!important;opacity:1!important}}</style><rect x="0" y="0" width="1200" height="640" rx="24" fill="#0a0a0a"/><rect x="0.5" y="0.5" width="1199" height="639" rx="24" fill="none" stroke="#1e1e1e" stroke-width="1"/><rect x="32" y="32" width="608" height="576" rx="16" fill="#0d0d0d" stroke="#2a2a2a" stroke-width="1"/><path d="M32 48a16 16 0 0 1 16-16h576a16 16 0 0 1 16 16v24H32Z" fill="#121212"/><circle cx="54" cy="52" r="5.5" fill="#ec6a5e"/><circle cx="72" cy="52" r="5.5" fill="#f4be4f"/><circle cx="90" cy="52" r="5.5" fill="#61c554"/><text x="336.0" y="57" font-size="13" fill="#a8a8a8" class="m" text-anchor="middle">automate.ts</text><rect x="32" y="72" width="608" height="1" fill="#222222"/><rect x="42" y="211" width="588" height="72" rx="6" fill="#1c1c24" stroke="#2c2c3a" stroke-width="1" style="animation:hl10 12s infinite" opacity="0"/><rect x="42" y="331" width="588" height="72" rx="6" fill="#1c1c24" stroke="#2c2c3a" stroke-width="1" style="animation:hl30 12s infinite" opacity="0"/><rect x="42" y="427" width="588" height="24" rx="6" fill="#1c1c24" stroke="#2c2c3a" stroke-width="1" style="animation:hl50 12s infinite" opacity="0"/><text x="72" y="108" font-size="12" fill="#5a5a5a" class="m" text-anchor="end">1</text><text x="86" y="108" font-size="13.5" class="m" xml:space="preserve"><tspan fill="#c4a7ff">import</tspan><tspan fill="#e6e6e6"> { chromium } </tspan><tspan fill="#c4a7ff">from</tspan><tspan fill="#9be9a8"> &quot;playwright&quot;</tspan><tspan fill="#e6e6e6">;</tspan></text><text x="72" y="132" font-size="12" fill="#5a5a5a" class="m" text-anchor="end">2</text><text x="72" y="156" font-size="12" fill="#5a5a5a" class="m" text-anchor="end">3</text><text x="86" y="156" font-size="13.5" class="m" xml:space="preserve"><tspan fill="#c4a7ff">const</tspan><tspan fill="#e6e6e6"> api = </tspan><tspan fill="#9be9a8">&quot;http://127.0.0.1:10108/v1&quot;</tspan><tspan fill="#e6e6e6">;</tspan></text><text x="72" y="180" font-size="12" fill="#5a5a5a" class="m" text-anchor="end">4</text><text x="86" y="180" font-size="13.5" class="m" xml:space="preserve"><tspan fill="#c4a7ff">const</tspan><tspan fill="#e6e6e6"> headers = { Authorization: </tspan><tspan fill="#9be9a8">`Bearer ${token}`</tspan><tspan fill="#e6e6e6"> };</tspan></text><text x="72" y="204" font-size="12" fill="#5a5a5a" class="m" text-anchor="end">5</text><text x="72" y="228" font-size="12" fill="#5a5a5a" class="m" text-anchor="end">6</text><text x="86" y="228" font-size="13.5" class="m" xml:space="preserve"><tspan fill="#c4a7ff">const</tspan><tspan fill="#e6e6e6"> res = </tspan><tspan fill="#c4a7ff">await</tspan><tspan fill="#e6e6e6"> </tspan><tspan fill="#8fc8ff">fetch</tspan><tspan fill="#e6e6e6">(</tspan><tspan fill="#9be9a8">`${api}/profiles/${id}/run`</tspan><tspan fill="#e6e6e6">, {</tspan></text><text x="72" y="252" font-size="12" fill="#5a5a5a" class="m" text-anchor="end">7</text><text x="86" y="252" font-size="13.5" class="m" xml:space="preserve"><tspan fill="#e6e6e6">  method: </tspan><tspan fill="#9be9a8">&quot;POST&quot;</tspan><tspan fill="#e6e6e6">, headers,</tspan></text><text x="72" y="276" font-size="12" fill="#5a5a5a" class="m" text-anchor="end">8</text><text x="86" y="276" font-size="13.5" class="m" xml:space="preserve"><tspan fill="#e6e6e6">});</tspan></text><text x="72" y="300" font-size="12" fill="#5a5a5a" class="m" text-anchor="end">9</text><text x="86" y="300" font-size="13.5" class="m" xml:space="preserve"><tspan fill="#c4a7ff">const</tspan><tspan fill="#e6e6e6"> { remote_debugging_port: port } = </tspan><tspan fill="#c4a7ff">await</tspan><tspan fill="#e6e6e6"> res.</tspan><tspan fill="#8fc8ff">json</tspan><tspan fill="#e6e6e6">();</tspan></text><text x="72" y="324" font-size="12" fill="#5a5a5a" class="m" text-anchor="end">10</text><text x="72" y="348" font-size="12" fill="#5a5a5a" class="m" text-anchor="end">11</text><text x="86" y="348" font-size="13.5" class="m" xml:space="preserve"><tspan fill="#c4a7ff">const</tspan><tspan fill="#e6e6e6"> browser = </tspan><tspan fill="#c4a7ff">await</tspan><tspan fill="#e6e6e6"> chromium.</tspan><tspan fill="#8fc8ff">connectOverCDP</tspan><tspan fill="#e6e6e6">(</tspan></text><text x="72" y="372" font-size="12" fill="#5a5a5a" class="m" text-anchor="end">12</text><text x="86" y="372" font-size="13.5" class="m" xml:space="preserve"><tspan fill="#e6e6e6">  </tspan><tspan fill="#9be9a8">`http://127.0.0.1:${port}`</tspan><tspan fill="#e6e6e6">,</tspan></text><text x="72" y="396" font-size="12" fill="#5a5a5a" class="m" text-anchor="end">13</text><text x="86" y="396" font-size="13.5" class="m" xml:space="preserve"><tspan fill="#e6e6e6">);</tspan></text><text x="72" y="420" font-size="12" fill="#5a5a5a" class="m" text-anchor="end">14</text><text x="86" y="420" font-size="13.5" class="m" xml:space="preserve"><tspan fill="#c4a7ff">const</tspan><tspan fill="#e6e6e6"> [page] = browser.</tspan><tspan fill="#8fc8ff">contexts</tspan><tspan fill="#e6e6e6">()[</tspan><tspan fill="#f0c674">0</tspan><tspan fill="#e6e6e6">].</tspan><tspan fill="#8fc8ff">pages</tspan><tspan fill="#e6e6e6">();</tspan></text><text x="72" y="444" font-size="12" fill="#5a5a5a" class="m" text-anchor="end">15</text><text x="86" y="444" font-size="13.5" class="m" xml:space="preserve"><tspan fill="#c4a7ff">await</tspan><tspan fill="#e6e6e6"> page.</tspan><tspan fill="#8fc8ff">goto</tspan><tspan fill="#e6e6e6">(</tspan><tspan fill="#9be9a8">&quot;https://example.com&quot;</tspan><tspan fill="#e6e6e6">);</tspan></text><rect x="32" y="464" width="608" height="1" fill="#222222"/><text x="54" y="494" font-size="13.5" fill="#8f8f8f" class="m">$ node automate.ts</text><g style="animation:t0 12s infinite" opacity="0"><g transform="translate(54 508) scale(0.5833)" fill="none" stroke="#7ee070" stroke-width="4.11" stroke-linecap="round" stroke-linejoin="round"><path d="M20 6 9 17l-5-5"/></g><text x="76" y="520" font-size="13.5" fill="#d8d8d8" class="m">Store DE is running, CDP port 52114</text></g><g style="animation:t1 12s infinite" opacity="0"><g transform="translate(54 532) scale(0.5833)" fill="none" stroke="#7ee070" stroke-width="4.11" stroke-linecap="round" stroke-linejoin="round"><path d="M20 6 9 17l-5-5"/></g><text x="76" y="544" font-size="13.5" fill="#d8d8d8" class="m">Playwright connected over CDP</text></g><g style="animation:t2 12s infinite" opacity="0"><g transform="translate(54 556) scale(0.5833)" fill="none" stroke="#7ee070" stroke-width="4.11" stroke-linecap="round" stroke-linejoin="round"><path d="M20 6 9 17l-5-5"/></g><text x="76" y="568" font-size="13.5" fill="#d8d8d8" class="m">example.com opened in the Store DE profile</text></g><rect x="672" y="32" width="496" height="576" rx="16" fill="#0d0d0d" stroke="#2a2a2a" stroke-width="1"/><g transform="translate(696 56) scale(0.9167)" fill="none" stroke="#e6e6e6" stroke-width="1.96" stroke-linecap="round" stroke-linejoin="round"><path d="M12 8V4H8M4 8h16v12H4zM2 14h2M20 14h2M15 13v2M9 13v2"/></g><text x="728" y="74" font-size="18" fill="#ffffff" font-weight="600">Your AI agent</text><rect x="1028" y="54" width="116" height="28" rx="14" fill="none" stroke="#3a3a3a" stroke-width="1"/><text x="1086.0" y="73" font-size="13" fill="#d8d8d8" text-anchor="middle">Remote MCP</text><text x="696" y="106" font-size="13.5" fill="#8f8f8f">Claude, Cursor, Codex or any MCP client</text><rect x="672" y="126" width="496" height="1" fill="#222222"/><g style="animation:u 12s infinite" opacity="0"><rect x="772" y="148" width="372" height="64" rx="14" fill="#ffffff"/><text x="790" y="175" font-size="14.5" fill="#0b0b0b">Open Store DE and tell me what is</text><text x="790" y="197" font-size="14.5" fill="#0b0b0b">new on the orders page.</text></g><g style="animation:m0 12s infinite" opacity="0"><rect x="696" y="236" width="448" height="40" rx="10" fill="#121212" stroke="#262626" stroke-width="1"/><text x="714" y="261" font-size="13.5" class="m"><tspan fill="#8fc8ff">list_profiles</tspan><tspan fill="#cfcfcf"></tspan></text><g transform="translate(1028 249) scale(0.5833)" fill="none" stroke="#7ee070" stroke-width="4.11" stroke-linecap="round" stroke-linejoin="round"><path d="M20 6 9 17l-5-5"/></g><text x="1048" y="261" font-size="13" fill="#a8a8a8">8 profiles</text></g><g style="animation:m1 12s infinite" opacity="0"><rect x="696" y="286" width="448" height="40" rx="10" fill="#121212" stroke="#262626" stroke-width="1"/><text x="714" y="311" font-size="13.5" class="m"><tspan fill="#8fc8ff">run_profile</tspan><tspan fill="#cfcfcf"> &quot;Store DE&quot;</tspan></text><g transform="translate(1028 299) scale(0.5833)" fill="none" stroke="#7ee070" stroke-width="4.11" stroke-linecap="round" stroke-linejoin="round"><path d="M20 6 9 17l-5-5"/></g><text x="1048" y="311" font-size="13" fill="#a8a8a8">running</text></g><g style="animation:m2 12s infinite" opacity="0"><rect x="696" y="336" width="448" height="40" rx="10" fill="#121212" stroke="#262626" stroke-width="1"/><text x="714" y="361" font-size="13.5" class="m"><tspan fill="#8fc8ff">navigate</tspan><tspan fill="#cfcfcf"> &quot;/orders&quot;</tspan></text><g transform="translate(1028 349) scale(0.5833)" fill="none" stroke="#7ee070" stroke-width="4.11" stroke-linecap="round" stroke-linejoin="round"><path d="M20 6 9 17l-5-5"/></g><text x="1048" y="361" font-size="13" fill="#a8a8a8">loaded</text></g><g style="animation:m3 12s infinite" opacity="0"><rect x="696" y="386" width="448" height="40" rx="10" fill="#121212" stroke="#262626" stroke-width="1"/><text x="714" y="411" font-size="13.5" class="m"><tspan fill="#8fc8ff">get_page_content</tspan><tspan fill="#cfcfcf"></tspan></text><g transform="translate(1028 399) scale(0.5833)" fill="none" stroke="#7ee070" stroke-width="4.11" stroke-linecap="round" stroke-linejoin="round"><path d="M20 6 9 17l-5-5"/></g><text x="1048" y="411" font-size="13" fill="#a8a8a8">3 new rows</text></g><g style="animation:a 12s infinite" opacity="0"><rect x="696" y="452" width="392" height="66" rx="14" fill="#161616" stroke="#2a2a2a" stroke-width="1"/><text x="714" y="480" font-size="14.5" fill="#ffffff">3 new orders since yesterday.</text><text x="714" y="502" font-size="14.5" fill="#cfcfcf">The newest one is from Berlin.</text></g><rect x="696" y="544" width="448" height="1" fill="#222222"/><g transform="translate(696 566) scale(0.6667)" fill="none" stroke="#a8a8a8" stroke-width="2.70" stroke-linecap="round" stroke-linejoin="round"><path d="M12 13a5 5 0 1 0 0-10 5 5 0 0 0 0 10ZM20 21a8 8 0 0 0-16 0"/></g><text x="722" y="579" font-size="13.5" fill="#a8a8a8">Watch it live, answer its questions, take over.</text></svg>